<?xml version="1.0" encoding="UTF-8"?>
<svg xmlns="http://www.w3.org/2000/svg" xmlns:xlink="http://www.w3.org/1999/xlink"
     width="960" height="480" viewBox="0 0 960 480">
<style>
@keyframes move0{0%{transform:translate(396.0px,259.2px)}8%{transform:translate(348.0px,336.0px)}15%{transform:translate(396.0px,278.4px)}23%{transform:translate(372.0px,182.4px)}31%{transform:translate(540.0px,220.8px)}38%{transform:translate(588.0px,124.8px)}46%{transform:translate(564.0px,124.8px)}54%{transform:translate(420.0px,144.0px)}62%{transform:translate(324.0px,86.4px)}69%{transform:translate(204.0px,124.8px)}77%{transform:translate(180.0px,220.8px)}85%{transform:translate(300.0px,297.6px)}92%{transform:translate(300.0px,336.0px)}100%{transform:translate(348.0px,374.4px)}}
@keyframes bob0{0%,100%{transform:translateY(0)}50%{transform:translateY(-3px)}}
@keyframes shadow0{0%,100%{rx:8;ry:3}50%{rx:10;ry:4}}
@keyframes move1{0%{transform:translate(828.0px,105.6px)}8%{transform:translate(780.0px,182.4px)}15%{transform:translate(900.0px,124.8px)}23%{transform:translate(852.0px,124.8px)}31%{transform:translate(996.0px,144.0px)}38%{transform:translate(924.0px,240.0px)}46%{transform:translate(1068.0px,336.0px)}54%{transform:translate(924.0px,240.0px)}62%{transform:translate(996.0px,144.0px)}69%{transform:translate(900.0px,240.0px)}77%{transform:translate(924.0px,336.0px)}85%{transform:translate(756.0px,336.0px)}92%{transform:translate(588.0px,316.8px)}100%{transform:translate(516.0px,220.8px)}}
@keyframes bob1{0%,100%{transform:translateY(0)}50%{transform:translateY(-3px)}}
@keyframes shadow1{0%,100%{rx:8;ry:3}50%{rx:10;ry:4}}
@keyframes move2{0%{transform:translate(1044.0px,220.8px)}8%{transform:translate(972.0px,124.8px)}15%{transform:translate(1068.0px,105.6px)}23%{transform:translate(924.0px,86.4px)}31%{transform:translate(876.0px,67.2px)}38%{transform:translate(1044.0px,67.2px)}46%{transform:translate(1068.0px,67.2px)}54%{transform:translate(972.0px,67.2px)}62%{transform:translate(924.0px,86.4px)}69%{transform:translate(804.0px,105.6px)}77%{transform:translate(804.0px,67.2px)}85%{transform:translate(660.0px,67.2px)}92%{transform:translate(756.0px,67.2px)}100%{transform:translate(780.0px,67.2px)}}
@keyframes bob2{0%,100%{transform:translateY(0)}50%{transform:translateY(-3px)}}
@keyframes shadow2{0%,100%{rx:8;ry:3}50%{rx:10;ry:4}}
@keyframes move3{0%{transform:translate(780.0px,508.8px)}8%{transform:translate(876.0px,547.2px)}15%{transform:translate(948.0px,547.2px)}23%{transform:translate(1068.0px,508.8px)}31%{transform:translate(1068.0px,547.2px)}38%{transform:translate(1068.0px,528.0px)}46%{transform:translate(1068.0px,547.2px)}54%{transform:translate(1068.0px,528.0px)}62%{transform:translate(972.0px,432.0px)}69%{transform:translate(1068.0px,374.4px)}77%{transform:translate(996.0px,355.2px)}85%{transform:translate(900.0px,278.4px)}92%{transform:translate(828.0px,201.6px)}100%{transform:translate(828.0px,182.4px)}}
@keyframes bob3{0%,100%{transform:translateY(0)}50%{transform:translateY(-3px)}}
@keyframes shadow3{0%,100%{rx:8;ry:3}50%{rx:10;ry:4}}
@keyframes move4{0%{transform:translate(852.0px,182.4px)}8%{transform:translate(756.0px,105.6px)}15%{transform:translate(852.0px,86.4px)}23%{transform:translate(948.0px,144.0px)}31%{transform:translate(1044.0px,240.0px)}38%{transform:translate(948.0px,336.0px)}46%{transform:translate(948.0px,336.0px)}54%{transform:translate(972.0px,412.8px)}62%{transform:translate(972.0px,316.8px)}69%{transform:translate(996.0px,297.6px)}77%{transform:translate(828.0px,240.0px)}85%{transform:translate(732.0px,316.8px)}92%{transform:translate(732.0px,316.8px)}100%{transform:translate(756.0px,355.2px)}}
@keyframes bob4{0%,100%{transform:translateY(0)}50%{transform:translateY(-3px)}}
@keyframes shadow4{0%,100%{rx:8;ry:3}50%{rx:10;ry:4}}
@keyframes move5{0%{transform:translate(828.0px,201.6px)}8%{transform:translate(924.0px,240.0px)}15%{transform:translate(996.0px,278.4px)}23%{transform:translate(972.0px,220.8px)}31%{transform:translate(852.0px,259.2px)}38%{transform:translate(732.0px,336.0px)}46%{transform:translate(876.0px,297.6px)}54%{transform:translate(900.0px,374.4px)}62%{transform:translate(996.0px,355.2px)}69%{transform:translate(1068.0px,355.2px)}77%{transform:translate(972.0px,451.2px)}85%{transform:translate(804.0px,528.0px)}92%{transform:translate(804.0px,547.2px)}100%{transform:translate(948.0px,547.2px)}}
@keyframes bob5{0%,100%{transform:translateY(0)}50%{transform:translateY(-3px)}}
@keyframes shadow5{0%,100%{rx:8;ry:3}50%{rx:10;ry:4}}
@keyframes sf0{from{transform:translateX(0)}to{transform:translateX(-256px)}}
@keyframes sf1{from{transform:translateX(0)}to{transform:translateX(-256px)}}
@keyframes sf2{from{transform:translateX(0)}to{transform:translateX(-256px)}}
@keyframes sf3{from{transform:translateX(0)}to{transform:translateX(-192px)}}
@keyframes sf4{from{transform:translateX(0)}to{transform:translateX(-256px)}}
@keyframes sf5{from{transform:translateX(0)}to{transform:translateX(-320px)}}

@keyframes ripple{0%,100%{opacity:.12}50%{opacity:.22}}
.ripple{animation:ripple 2.5s ease-in-out infinite}
</style>

<defs>
  <radialGradient id="vignette" cx="50%" cy="50%" r="70%">
    <stop offset="0%" stop-color="transparent"/>
    <stop offset="100%" stop-color="rgba(0,0,10,0.5)"/>
  </radialGradient>
  <linearGradient id="titlebar" x1="0" x2="1" y1="0" y2="0">
    <stop offset="0%"   stop-color="#0a1428"/>
    <stop offset="50%"  stop-color="#12204a"/>
    <stop offset="100%" stop-color="#0a1428"/>
  </linearGradient>
</defs>

<!-- ── Background colour ── -->
<rect width="960" height="480" fill="#0a1218"/>

<!-- ── Tilemap ── -->
<g id="tilemap">
<rect x="0.0" y="0.0" width="96.0" height="19.2" fill="#1565a0"/>
<rect x="96.0" y="0.0" width="24.0" height="19.2" fill="#e8d09a"/>
<rect x="120.0" y="0.0" width="936.0" height="19.2" fill="#4caf50"/>
<rect x="1056.0" y="0.0" width="72.0" height="19.2" fill="#e8d09a"/>
<rect x="1128.0" y="0.0" width="24.0" height="19.2" fill="#4caf50"/>
<rect x="0.0" y="19.2" width="72.0" height="19.2" fill="#1565a0"/>
<rect x="72.0" y="19.2" width="24.0" height="19.2" fill="#2196d4"/>
<rect x="96.0" y="19.2" width="24.0" height="19.2" fill="#e8d09a"/>
<rect x="120.0" y="19.2" width="1032.0" height="19.2" fill="#4caf50"/>
<rect x="0.0" y="38.4" width="24.0" height="19.2" fill="#1565a0"/>
<rect x="24.0" y="38.4" width="48.0" height="19.2" fill="#2196d4"/>
<rect x="72.0" y="38.4" width="24.0" height="19.2" fill="#e8d09a"/>
<rect x="96.0" y="38.4" width="1056.0" height="19.2" fill="#4caf50"/>
<rect x="0.0" y="57.6" width="24.0" height="19.2" fill="#2196d4"/>
<rect x="24.0" y="57.6" width="48.0" height="19.2" fill="#e8d09a"/>
<rect x="72.0" y="57.6" width="1080.0" height="19.2" fill="#4caf50"/>
<rect x="0.0" y="76.8" width="24.0" height="19.2" fill="#e8d09a"/>
<rect x="24.0" y="76.8" width="1128.0" height="19.2" fill="#4caf50"/>
<rect x="0.0" y="96.0" width="168.0" height="19.2" fill="#4caf50"/>
<rect x="168.0" y="96.0" width="72.0" height="19.2" fill="#2e7d32"/>
<rect x="240.0" y="96.0" width="912.0" height="19.2" fill="#4caf50"/>
<rect x="0.0" y="115.2" width="120.0" height="19.2" fill="#4caf50"/>
<rect x="120.0" y="115.2" width="120.0" height="19.2" fill="#2e7d32"/>
<rect x="240.0" y="115.2" width="288.0" height="19.2" fill="#4caf50"/>
<rect x="528.0" y="115.2" width="24.0" height="19.2" fill="#e8d09a"/>
<rect x="552.0" y="115.2" width="600.0" height="19.2" fill="#4caf50"/>
<rect x="0.0" y="134.4" width="120.0" height="19.2" fill="#4caf50"/>
<rect x="120.0" y="134.4" width="120.0" height="19.2" fill="#2e7d32"/>
<rect x="240.0" y="134.4" width="240.0" height="19.2" fill="#4caf50"/>
<rect x="480.0" y="134.4" width="96.0" height="19.2" fill="#c8a870"/>
<rect x="576.0" y="134.4" width="48.0" height="19.2" fill="#e8d09a"/>
<rect x="624.0" y="134.4" width="528.0" height="19.2" fill="#4caf50"/>
<rect x="0.0" y="153.6" width="120.0" height="19.2" fill="#4caf50"/>
<rect x="120.0" y="153.6" width="120.0" height="19.2" fill="#2e7d32"/>
<rect x="240.0" y="153.6" width="192.0" height="19.2" fill="#4caf50"/>
<rect x="432.0" y="153.6" width="96.0" height="19.2" fill="#c8a870"/>
<rect x="528.0" y="153.6" width="24.0" height="19.2" fill="#2196d4"/>
<rect x="552.0" y="153.6" width="24.0" height="19.2" fill="#c8a870"/>
<rect x="576.0" y="153.6" width="144.0" height="19.2" fill="#4caf50"/>
<rect x="720.0" y="153.6" width="72.0" height="19.2" fill="#e8d09a"/>
<rect x="792.0" y="153.6" width="360.0" height="19.2" fill="#4caf50"/>
<rect x="0.0" y="172.8" width="120.0" height="19.2" fill="#4caf50"/>
<rect x="120.0" y="172.8" width="48.0" height="19.2" fill="#2e7d32"/>
<rect x="168.0" y="172.8" width="216.0" height="19.2" fill="#4caf50"/>
<rect x="384.0" y="172.8" width="120.0" height="19.2" fill="#c8a870"/>
<rect x="504.0" y="172.8" width="240.0" height="19.2" fill="#4caf50"/>
<rect x="744.0" y="172.8" width="48.0" height="19.2" fill="#e8d09a"/>
<rect x="792.0" y="172.8" width="48.0" height="19.2" fill="#4caf50"/>
<rect x="840.0" y="172.8" width="24.0" height="19.2" fill="#e8d09a"/>
<rect x="864.0" y="172.8" width="192.0" height="19.2" fill="#4caf50"/>
<rect x="1056.0" y="172.8" width="48.0" height="19.2" fill="#2e7d32"/>
<rect x="1104.0" y="172.8" width="48.0" height="19.2" fill="#4caf50"/>
<rect x="0.0" y="192.0" width="48.0" height="19.2" fill="#4caf50"/>
<rect x="48.0" y="192.0" width="48.0" height="19.2" fill="#2e7d32"/>
<rect x="96.0" y="192.0" width="216.0" height="19.2" fill="#4caf50"/>
<rect x="312.0" y="192.0" width="144.0" height="19.2" fill="#c8a870"/>
<rect x="456.0" y="192.0" width="576.0" height="19.2" fill="#4caf50"/>
<rect x="1032.0" y="192.0" width="72.0" height="19.2" fill="#2e7d32"/>
<rect x="1104.0" y="192.0" width="48.0" height="19.2" fill="#4caf50"/>
<rect x="0.0" y="211.2" width="96.0" height="19.2" fill="#2e7d32"/>
<rect x="96.0" y="211.2" width="168.0" height="19.2" fill="#4caf50"/>
<rect x="264.0" y="211.2" width="168.0" height="19.2" fill="#c8a870"/>
<rect x="432.0" y="211.2" width="144.0" height="19.2" fill="#4caf50"/>
<rect x="576.0" y="211.2" width="24.0" height="19.2" fill="#9890a0"/>
<rect x="600.0" y="211.2" width="288.0" height="19.2" fill="#4caf50"/>
<rect x="888.0" y="211.2" width="48.0" height="19.2" fill="#e8d09a"/>
<rect x="936.0" y="211.2" width="96.0" height="19.2" fill="#4caf50"/>
<rect x="1032.0" y="211.2" width="72.0" height="19.2" fill="#2e7d32"/>
<rect x="1104.0" y="211.2" width="48.0" height="19.2" fill="#4caf50"/>
<rect x="0.0" y="230.4" width="120.0" height="19.2" fill="#2e7d32"/>
<rect x="120.0" y="230.4" width="96.0" height="19.2" fill="#4caf50"/>
<rect x="216.0" y="230.4" width="216.0" height="19.2" fill="#c8a870"/>
<rect x="432.0" y="230.4" width="72.0" height="19.2" fill="#4caf50"/>
<rect x="504.0" y="230.4" width="168.0" height="19.2" fill="#9890a0"/>
<rect x="672.0" y="230.4" width="192.0" height="19.2" fill="#4caf50"/>
<rect x="864.0" y="230.4" width="48.0" height="19.2" fill="#e8d09a"/>
<rect x="912.0" y="230.4" width="120.0" height="19.2" fill="#4caf50"/>
<rect x="1032.0" y="230.4" width="72.0" height="19.2" fill="#2e7d32"/>
<rect x="1104.0" y="230.4" width="48.0" height="19.2" fill="#4caf50"/>
<rect x="0.0" y="249.6" width="24.0" height="19.2" fill="#1b5e20"/>
<rect x="24.0" y="249.6" width="144.0" height="19.2" fill="#2e7d32"/>
<rect x="168.0" y="249.6" width="216.0" height="19.2" fill="#c8a870"/>
<rect x="384.0" y="249.6" width="96.0" height="19.2" fill="#4caf50"/>
<rect x="480.0" y="249.6" width="216.0" height="19.2" fill="#9890a0"/>
<rect x="696.0" y="249.6" width="72.0" height="19.2" fill="#4caf50"/>
<rect x="768.0" y="249.6" width="144.0" height="19.2" fill="#e8d09a"/>
<rect x="912.0" y="249.6" width="144.0" height="19.2" fill="#4caf50"/>
<rect x="1056.0" y="249.6" width="72.0" height="19.2" fill="#2e7d32"/>
<rect x="1128.0" y="249.6" width="24.0" height="19.2" fill="#4caf50"/>
<rect x="0.0" y="268.8" width="24.0" height="19.2" fill="#1b5e20"/>
<rect x="24.0" y="268.8" width="96.0" height="19.2" fill="#2e7d32"/>
<rect x="120.0" y="268.8" width="216.0" height="19.2" fill="#c8a870"/>
<rect x="336.0" y="268.8" width="144.0" height="19.2" fill="#4caf50"/>
<rect x="480.0" y="268.8" width="216.0" height="19.2" fill="#9890a0"/>
<rect x="696.0" y="268.8" width="72.0" height="19.2" fill="#4caf50"/>
<rect x="768.0" y="268.8" width="24.0" height="19.2" fill="#e8d09a"/>
<rect x="792.0" y="268.8" width="48.0" height="19.2" fill="#2196d4"/>
<rect x="840.0" y="268.8" width="24.0" height="19.2" fill="#e8d09a"/>
<rect x="864.0" y="268.8" width="288.0" height="19.2" fill="#4caf50"/>
<rect x="0.0" y="288.0" width="24.0" height="19.2" fill="#1b5e20"/>
<rect x="24.0" y="288.0" width="72.0" height="19.2" fill="#2e7d32"/>
<rect x="96.0" y="288.0" width="192.0" height="19.2" fill="#c8a870"/>
<rect x="288.0" y="288.0" width="192.0" height="19.2" fill="#4caf50"/>
<rect x="480.0" y="288.0" width="216.0" height="19.2" fill="#9890a0"/>
<rect x="696.0" y="288.0" width="72.0" height="19.2" fill="#4caf50"/>
<rect x="768.0" y="288.0" width="96.0" height="19.2" fill="#2196d4"/>
<rect x="864.0" y="288.0" width="24.0" height="19.2" fill="#e8d09a"/>
<rect x="888.0" y="288.0" width="96.0" height="19.2" fill="#4caf50"/>
<rect x="984.0" y="288.0" width="96.0" height="19.2" fill="#c8a870"/>
<rect x="1080.0" y="288.0" width="72.0" height="19.2" fill="#4caf50"/>
<rect x="0.0" y="307.2" width="96.0" height="19.2" fill="#1b5e20"/>
<rect x="96.0" y="307.2" width="168.0" height="19.2" fill="#c8a870"/>
<rect x="264.0" y="307.2" width="192.0" height="19.2" fill="#4caf50"/>
<rect x="456.0" y="307.2" width="264.0" height="19.2" fill="#9890a0"/>
<rect x="720.0" y="307.2" width="72.0" height="19.2" fill="#4caf50"/>
<rect x="792.0" y="307.2" width="72.0" height="19.2" fill="#1565a0"/>
<rect x="864.0" y="307.2" width="24.0" height="19.2" fill="#2196d4"/>
<rect x="888.0" y="307.2" width="48.0" height="19.2" fill="#4caf50"/>
<rect x="936.0" y="307.2" width="144.0" height="19.2" fill="#c8a870"/>
<rect x="1080.0" y="307.2" width="72.0" height="19.2" fill="#4caf50"/>
<rect x="0.0" y="326.4" width="96.0" height="19.2" fill="#1b5e20"/>
<rect x="96.0" y="326.4" width="216.0" height="19.2" fill="#c8a870"/>
<rect x="312.0" y="326.4" width="168.0" height="19.2" fill="#4caf50"/>
<rect x="480.0" y="326.4" width="216.0" height="19.2" fill="#9890a0"/>
<rect x="696.0" y="326.4" width="72.0" height="19.2" fill="#4caf50"/>
<rect x="768.0" y="326.4" width="24.0" height="19.2" fill="#2196d4"/>
<rect x="792.0" y="326.4" width="72.0" height="19.2" fill="#1565a0"/>
<rect x="864.0" y="326.4" width="24.0" height="19.2" fill="#2196d4"/>
<rect x="888.0" y="326.4" width="192.0" height="19.2" fill="#c8a870"/>
<rect x="1080.0" y="326.4" width="72.0" height="19.2" fill="#4caf50"/>
<rect x="0.0" y="345.6" width="120.0" height="19.2" fill="#1b5e20"/>
<rect x="120.0" y="345.6" width="264.0" height="19.2" fill="#c8a870"/>
<rect x="384.0" y="345.6" width="96.0" height="19.2" fill="#4caf50"/>
<rect x="480.0" y="345.6" width="216.0" height="19.2" fill="#9890a0"/>
<rect x="696.0" y="345.6" width="72.0" height="19.2" fill="#4caf50"/>
<rect x="768.0" y="345.6" width="96.0" height="19.2" fill="#1565a0"/>
<rect x="864.0" y="345.6" width="192.0" height="19.2" fill="#c8a870"/>
<rect x="1056.0" y="345.6" width="96.0" height="19.2" fill="#4caf50"/>
<rect x="0.0" y="364.8" width="48.0" height="19.2" fill="#1b5e20"/>
<rect x="48.0" y="364.8" width="48.0" height="19.2" fill="#2e7d32"/>
<rect x="96.0" y="364.8" width="24.0" height="19.2" fill="#1b5e20"/>
<rect x="120.0" y="364.8" width="48.0" height="19.2" fill="#2e7d32"/>
<rect x="168.0" y="364.8" width="24.0" height="19.2" fill="#4caf50"/>
<rect x="192.0" y="364.8" width="216.0" height="19.2" fill="#c8a870"/>
<rect x="408.0" y="364.8" width="72.0" height="19.2" fill="#4caf50"/>
<rect x="480.0" y="364.8" width="216.0" height="19.2" fill="#9890a0"/>
<rect x="696.0" y="364.8" width="72.0" height="19.2" fill="#4caf50"/>
<rect x="768.0" y="364.8" width="72.0" height="19.2" fill="#1565a0"/>
<rect x="840.0" y="364.8" width="24.0" height="19.2" fill="#2196d4"/>
<rect x="864.0" y="364.8" width="144.0" height="19.2" fill="#c8a870"/>
<rect x="1008.0" y="364.8" width="144.0" height="19.2" fill="#4caf50"/>
<rect x="0.0" y="384.0" width="96.0" height="19.2" fill="#2e7d32"/>
<rect x="96.0" y="384.0" width="24.0" height="19.2" fill="#1b5e20"/>
<rect x="120.0" y="384.0" width="48.0" height="19.2" fill="#2e7d32"/>
<rect x="168.0" y="384.0" width="96.0" height="19.2" fill="#4caf50"/>
<rect x="264.0" y="384.0" width="168.0" height="19.2" fill="#c8a870"/>
<rect x="432.0" y="384.0" width="72.0" height="19.2" fill="#4caf50"/>
<rect x="504.0" y="384.0" width="168.0" height="19.2" fill="#9890a0"/>
<rect x="672.0" y="384.0" width="72.0" height="19.2" fill="#4caf50"/>
<rect x="744.0" y="384.0" width="48.0" height="19.2" fill="#2196d4"/>
<rect x="792.0" y="384.0" width="48.0" height="19.2" fill="#1565a0"/>
<rect x="840.0" y="384.0" width="48.0" height="19.2" fill="#2196d4"/>
<rect x="888.0" y="384.0" width="72.0" height="19.2" fill="#c8a870"/>
<rect x="960.0" y="384.0" width="48.0" height="19.2" fill="#4caf50"/>
<rect x="1008.0" y="384.0" width="24.0" height="19.2" fill="#e8d09a"/>
<rect x="1032.0" y="384.0" width="24.0" height="19.2" fill="#2196d4"/>
<rect x="1056.0" y="384.0" width="96.0" height="19.2" fill="#e8d09a"/>
<rect x="0.0" y="403.2" width="144.0" height="19.2" fill="#2e7d32"/>
<rect x="144.0" y="403.2" width="168.0" height="19.2" fill="#4caf50"/>
<rect x="312.0" y="403.2" width="120.0" height="19.2" fill="#c8a870"/>
<rect x="432.0" y="403.2" width="144.0" height="19.2" fill="#4caf50"/>
<rect x="576.0" y="403.2" width="24.0" height="19.2" fill="#9890a0"/>
<rect x="600.0" y="403.2" width="144.0" height="19.2" fill="#4caf50"/>
<rect x="744.0" y="403.2" width="48.0" height="19.2" fill="#2196d4"/>
<rect x="792.0" y="403.2" width="24.0" height="19.2" fill="#1565a0"/>
<rect x="816.0" y="403.2" width="72.0" height="19.2" fill="#2196d4"/>
<rect x="888.0" y="403.2" width="96.0" height="19.2" fill="#4caf50"/>
<rect x="984.0" y="403.2" width="24.0" height="19.2" fill="#e8d09a"/>
<rect x="1008.0" y="403.2" width="144.0" height="19.2" fill="#2196d4"/>
<rect x="0.0" y="422.4" width="120.0" height="19.2" fill="#2e7d32"/>
<rect x="120.0" y="422.4" width="264.0" height="19.2" fill="#4caf50"/>
<rect x="384.0" y="422.4" width="72.0" height="19.2" fill="#c8a870"/>
<rect x="456.0" y="422.4" width="264.0" height="19.2" fill="#4caf50"/>
<rect x="720.0" y="422.4" width="48.0" height="19.2" fill="#c8a870"/>
<rect x="768.0" y="422.4" width="120.0" height="19.2" fill="#2196d4"/>
<rect x="888.0" y="422.4" width="24.0" height="19.2" fill="#e8d09a"/>
<rect x="912.0" y="422.4" width="96.0" height="19.2" fill="#4caf50"/>
<rect x="1008.0" y="422.4" width="24.0" height="19.2" fill="#e8d09a"/>
<rect x="1032.0" y="422.4" width="48.0" height="19.2" fill="#2196d4"/>
<rect x="1080.0" y="422.4" width="48.0" height="19.2" fill="#1565a0"/>
<rect x="1128.0" y="422.4" width="24.0" height="19.2" fill="#2196d4"/>
<rect x="0.0" y="441.6" width="120.0" height="19.2" fill="#2e7d32"/>
<rect x="120.0" y="441.6" width="336.0" height="19.2" fill="#4caf50"/>
<rect x="456.0" y="441.6" width="48.0" height="19.2" fill="#c8a870"/>
<rect x="504.0" y="441.6" width="168.0" height="19.2" fill="#4caf50"/>
<rect x="672.0" y="441.6" width="96.0" height="19.2" fill="#c8a870"/>
<rect x="768.0" y="441.6" width="96.0" height="19.2" fill="#2196d4"/>
<rect x="864.0" y="441.6" width="48.0" height="19.2" fill="#e8d09a"/>
<rect x="912.0" y="441.6" width="72.0" height="19.2" fill="#4caf50"/>
<rect x="984.0" y="441.6" width="24.0" height="19.2" fill="#e8d09a"/>
<rect x="1008.0" y="441.6" width="96.0" height="19.2" fill="#2196d4"/>
<rect x="1104.0" y="441.6" width="24.0" height="19.2" fill="#1565a0"/>
<rect x="1128.0" y="441.6" width="24.0" height="19.2" fill="#2196d4"/>
<rect x="0.0" y="460.8" width="24.0" height="19.2" fill="#4caf50"/>
<rect x="24.0" y="460.8" width="96.0" height="19.2" fill="#2e7d32"/>
<rect x="120.0" y="460.8" width="408.0" height="19.2" fill="#4caf50"/>
<rect x="528.0" y="460.8" width="48.0" height="19.2" fill="#c8a870"/>
<rect x="576.0" y="460.8" width="24.0" height="19.2" fill="#4caf50"/>
<rect x="600.0" y="460.8" width="144.0" height="19.2" fill="#c8a870"/>
<rect x="744.0" y="460.8" width="24.0" height="19.2" fill="#e8d09a"/>
<rect x="768.0" y="460.8" width="96.0" height="19.2" fill="#2196d4"/>
<rect x="864.0" y="460.8" width="24.0" height="19.2" fill="#e8d09a"/>
<rect x="888.0" y="460.8" width="120.0" height="19.2" fill="#4caf50"/>
<rect x="1008.0" y="460.8" width="96.0" height="19.2" fill="#e8d09a"/>
<rect x="1104.0" y="460.8" width="24.0" height="19.2" fill="#2196d4"/>
<rect x="1128.0" y="460.8" width="24.0" height="19.2" fill="#e8d09a"/>
<rect x="0.0" y="480.0" width="24.0" height="19.2" fill="#4caf50"/>
<rect x="24.0" y="480.0" width="72.0" height="19.2" fill="#2e7d32"/>
<rect x="96.0" y="480.0" width="480.0" height="19.2" fill="#4caf50"/>
<rect x="576.0" y="480.0" width="120.0" height="19.2" fill="#c8a870"/>
<rect x="696.0" y="480.0" width="24.0" height="19.2" fill="#4caf50"/>
<rect x="720.0" y="480.0" width="144.0" height="19.2" fill="#e8d09a"/>
<rect x="864.0" y="480.0" width="288.0" height="19.2" fill="#4caf50"/>
<rect x="0.0" y="499.2" width="24.0" height="19.2" fill="#2e7d32"/>
<rect x="24.0" y="499.2" width="1128.0" height="19.2" fill="#4caf50"/>
<rect x="0.0" y="518.4" width="1152.0" height="19.2" fill="#4caf50"/>
<rect x="0.0" y="537.6" width="1152.0" height="19.2" fill="#4caf50"/>
<rect x="0.0" y="556.8" width="1152.0" height="19.2" fill="#4caf50"/>
<rect x="0.0" y="576.0" width="192.0" height="19.2" fill="#4caf50"/>
<rect x="192.0" y="576.0" width="48.0" height="19.2" fill="#2e7d32"/>
<rect x="240.0" y="576.0" width="912.0" height="19.2" fill="#4caf50"/>
<rect x="0.0" y="595.2" width="192.0" height="19.2" fill="#4caf50"/>
<rect x="192.0" y="595.2" width="48.0" height="19.2" fill="#2e7d32"/>
<rect x="240.0" y="595.2" width="72.0" height="19.2" fill="#4caf50"/>
<rect x="312.0" y="595.2" width="96.0" height="19.2" fill="#2e7d32"/>
<rect x="408.0" y="595.2" width="720.0" height="19.2" fill="#4caf50"/>
<rect x="1128.0" y="595.2" width="24.0" height="19.2" fill="#2e7d32"/>
</g>

<!-- ── Water ripples ── -->
<g id="water-fx" opacity="0.6">
<line x1="4.8" y1="8.6" x2="19.2" y2="8.6" stroke="white" stroke-width="0.7" class="ripple" style="animation-delay:0.00s"/>
<line x1="28.8" y1="8.6" x2="43.2" y2="8.6" stroke="white" stroke-width="0.7" class="ripple" style="animation-delay:0.45s"/>
<line x1="52.8" y1="8.6" x2="67.2" y2="8.6" stroke="white" stroke-width="0.7" class="ripple" style="animation-delay:0.90s"/>
<line x1="76.8" y1="8.6" x2="91.2" y2="8.6" stroke="white" stroke-width="0.7" class="ripple" style="animation-delay:1.35s"/>
<line x1="4.8" y1="27.8" x2="19.2" y2="27.8" stroke="white" stroke-width="0.7" class="ripple" style="animation-delay:1.05s"/>
<line x1="28.8" y1="27.8" x2="43.2" y2="27.8" stroke="white" stroke-width="0.7" class="ripple" style="animation-delay:1.50s"/>
<line x1="52.8" y1="27.8" x2="67.2" y2="27.8" stroke="white" stroke-width="0.7" class="ripple" style="animation-delay:1.95s"/>
<line x1="76.8" y1="27.8" x2="91.2" y2="27.8" stroke="white" stroke-width="0.7" class="ripple" style="animation-delay:2.40s"/>
<line x1="4.8" y1="47.0" x2="19.2" y2="47.0" stroke="white" stroke-width="0.7" class="ripple" style="animation-delay:2.10s"/>
<line x1="28.8" y1="47.0" x2="43.2" y2="47.0" stroke="white" stroke-width="0.7" class="ripple" style="animation-delay:0.00s"/>
<line x1="52.8" y1="47.0" x2="67.2" y2="47.0" stroke="white" stroke-width="0.7" class="ripple" style="animation-delay:0.45s"/>
<line x1="4.8" y1="66.2" x2="19.2" y2="66.2" stroke="white" stroke-width="0.7" class="ripple" style="animation-delay:0.60s"/>
<line x1="532.8" y1="162.2" x2="547.2" y2="162.2" stroke="white" stroke-width="0.7" class="ripple" style="animation-delay:0.45s"/>
<line x1="796.8" y1="277.4" x2="811.2" y2="277.4" stroke="white" stroke-width="0.7" class="ripple" style="animation-delay:1.50s"/>
<line x1="820.8" y1="277.4" x2="835.2" y2="277.4" stroke="white" stroke-width="0.7" class="ripple" style="animation-delay:1.95s"/>
<line x1="772.8" y1="296.6" x2="787.2" y2="296.6" stroke="white" stroke-width="0.7" class="ripple" style="animation-delay:2.10s"/>
<line x1="796.8" y1="296.6" x2="811.2" y2="296.6" stroke="white" stroke-width="0.7" class="ripple" style="animation-delay:0.00s"/>
<line x1="820.8" y1="296.6" x2="835.2" y2="296.6" stroke="white" stroke-width="0.7" class="ripple" style="animation-delay:0.45s"/>
<line x1="844.8" y1="296.6" x2="859.2" y2="296.6" stroke="white" stroke-width="0.7" class="ripple" style="animation-delay:0.90s"/>
<line x1="796.8" y1="315.8" x2="811.2" y2="315.8" stroke="white" stroke-width="0.7" class="ripple" style="animation-delay:1.05s"/>
<line x1="820.8" y1="315.8" x2="835.2" y2="315.8" stroke="white" stroke-width="0.7" class="ripple" style="animation-delay:1.50s"/>
<line x1="844.8" y1="315.8" x2="859.2" y2="315.8" stroke="white" stroke-width="0.7" class="ripple" style="animation-delay:1.95s"/>
<line x1="868.8" y1="315.8" x2="883.2" y2="315.8" stroke="white" stroke-width="0.7" class="ripple" style="animation-delay:2.40s"/>
<line x1="772.8" y1="335.0" x2="787.2" y2="335.0" stroke="white" stroke-width="0.7" class="ripple" style="animation-delay:1.65s"/>
<line x1="796.8" y1="335.0" x2="811.2" y2="335.0" stroke="white" stroke-width="0.7" class="ripple" style="animation-delay:2.10s"/>
<line x1="820.8" y1="335.0" x2="835.2" y2="335.0" stroke="white" stroke-width="0.7" class="ripple" style="animation-delay:0.00s"/>
<line x1="844.8" y1="335.0" x2="859.2" y2="335.0" stroke="white" stroke-width="0.7" class="ripple" style="animation-delay:0.45s"/>
<line x1="868.8" y1="335.0" x2="883.2" y2="335.0" stroke="white" stroke-width="0.7" class="ripple" style="animation-delay:0.90s"/>
<line x1="772.8" y1="354.2" x2="787.2" y2="354.2" stroke="white" stroke-width="0.7" class="ripple" style="animation-delay:0.15s"/>
<line x1="796.8" y1="354.2" x2="811.2" y2="354.2" stroke="white" stroke-width="0.7" class="ripple" style="animation-delay:0.60s"/>
<line x1="820.8" y1="354.2" x2="835.2" y2="354.2" stroke="white" stroke-width="0.7" class="ripple" style="animation-delay:1.05s"/>
<line x1="844.8" y1="354.2" x2="859.2" y2="354.2" stroke="white" stroke-width="0.7" class="ripple" style="animation-delay:1.50s"/>
<line x1="772.8" y1="373.4" x2="787.2" y2="373.4" stroke="white" stroke-width="0.7" class="ripple" style="animation-delay:1.20s"/>
<line x1="796.8" y1="373.4" x2="811.2" y2="373.4" stroke="white" stroke-width="0.7" class="ripple" style="animation-delay:1.65s"/>
<line x1="820.8" y1="373.4" x2="835.2" y2="373.4" stroke="white" stroke-width="0.7" class="ripple" style="animation-delay:2.10s"/>
<line x1="844.8" y1="373.4" x2="859.2" y2="373.4" stroke="white" stroke-width="0.7" class="ripple" style="animation-delay:0.00s"/>
<line x1="748.8" y1="392.6" x2="763.2" y2="392.6" stroke="white" stroke-width="0.7" class="ripple" style="animation-delay:1.80s"/>
<line x1="772.8" y1="392.6" x2="787.2" y2="392.6" stroke="white" stroke-width="0.7" class="ripple" style="animation-delay:2.25s"/>
<line x1="796.8" y1="392.6" x2="811.2" y2="392.6" stroke="white" stroke-width="0.7" class="ripple" style="animation-delay:0.15s"/>
<line x1="820.8" y1="392.6" x2="835.2" y2="392.6" stroke="white" stroke-width="0.7" class="ripple" style="animation-delay:0.60s"/>
<line x1="844.8" y1="392.6" x2="859.2" y2="392.6" stroke="white" stroke-width="0.7" class="ripple" style="animation-delay:1.05s"/>
<line x1="868.8" y1="392.6" x2="883.2" y2="392.6" stroke="white" stroke-width="0.7" class="ripple" style="animation-delay:1.50s"/>
<line x1="1036.8" y1="392.6" x2="1051.2" y2="392.6" stroke="white" stroke-width="0.7" class="ripple" style="animation-delay:2.10s"/>
<line x1="748.8" y1="411.8" x2="763.2" y2="411.8" stroke="white" stroke-width="0.7" class="ripple" style="animation-delay:0.30s"/>
<line x1="772.8" y1="411.8" x2="787.2" y2="411.8" stroke="white" stroke-width="0.7" class="ripple" style="animation-delay:0.75s"/>
<line x1="796.8" y1="411.8" x2="811.2" y2="411.8" stroke="white" stroke-width="0.7" class="ripple" style="animation-delay:1.20s"/>
<line x1="820.8" y1="411.8" x2="835.2" y2="411.8" stroke="white" stroke-width="0.7" class="ripple" style="animation-delay:1.65s"/>
<line x1="844.8" y1="411.8" x2="859.2" y2="411.8" stroke="white" stroke-width="0.7" class="ripple" style="animation-delay:2.10s"/>
<line x1="868.8" y1="411.8" x2="883.2" y2="411.8" stroke="white" stroke-width="0.7" class="ripple" style="animation-delay:0.00s"/>
<line x1="1012.8" y1="411.8" x2="1027.2" y2="411.8" stroke="white" stroke-width="0.7" class="ripple" style="animation-delay:0.15s"/>
<line x1="1036.8" y1="411.8" x2="1051.2" y2="411.8" stroke="white" stroke-width="0.7" class="ripple" style="animation-delay:0.60s"/>
<line x1="1060.8" y1="411.8" x2="1075.2" y2="411.8" stroke="white" stroke-width="0.7" class="ripple" style="animation-delay:1.05s"/>
<line x1="1084.8" y1="411.8" x2="1099.2" y2="411.8" stroke="white" stroke-width="0.7" class="ripple" style="animation-delay:1.50s"/>
<line x1="1108.8" y1="411.8" x2="1123.2" y2="411.8" stroke="white" stroke-width="0.7" class="ripple" style="animation-delay:1.95s"/>
<line x1="1132.8" y1="411.8" x2="1147.2" y2="411.8" stroke="white" stroke-width="0.7" class="ripple" style="animation-delay:2.40s"/>
<line x1="772.8" y1="431.0" x2="787.2" y2="431.0" stroke="white" stroke-width="0.7" class="ripple" style="animation-delay:1.80s"/>
<line x1="796.8" y1="431.0" x2="811.2" y2="431.0" stroke="white" stroke-width="0.7" class="ripple" style="animation-delay:2.25s"/>
<line x1="820.8" y1="431.0" x2="835.2" y2="431.0" stroke="white" stroke-width="0.7" class="ripple" style="animation-delay:0.15s"/>
<line x1="844.8" y1="431.0" x2="859.2" y2="431.0" stroke="white" stroke-width="0.7" class="ripple" style="animation-delay:0.60s"/>
<line x1="868.8" y1="431.0" x2="883.2" y2="431.0" stroke="white" stroke-width="0.7" class="ripple" style="animation-delay:1.05s"/>
<line x1="1036.8" y1="431.0" x2="1051.2" y2="431.0" stroke="white" stroke-width="0.7" class="ripple" style="animation-delay:1.65s"/>
<line x1="1060.8" y1="431.0" x2="1075.2" y2="431.0" stroke="white" stroke-width="0.7" class="ripple" style="animation-delay:2.10s"/>
<line x1="1084.8" y1="431.0" x2="1099.2" y2="431.0" stroke="white" stroke-width="0.7" class="ripple" style="animation-delay:0.00s"/>
<line x1="1108.8" y1="431.0" x2="1123.2" y2="431.0" stroke="white" stroke-width="0.7" class="ripple" style="animation-delay:0.45s"/>
<line x1="1132.8" y1="431.0" x2="1147.2" y2="431.0" stroke="white" stroke-width="0.7" class="ripple" style="animation-delay:0.90s"/>
<line x1="772.8" y1="450.2" x2="787.2" y2="450.2" stroke="white" stroke-width="0.7" class="ripple" style="animation-delay:0.30s"/>
<line x1="796.8" y1="450.2" x2="811.2" y2="450.2" stroke="white" stroke-width="0.7" class="ripple" style="animation-delay:0.75s"/>
<line x1="820.8" y1="450.2" x2="835.2" y2="450.2" stroke="white" stroke-width="0.7" class="ripple" style="animation-delay:1.20s"/>
<line x1="844.8" y1="450.2" x2="859.2" y2="450.2" stroke="white" stroke-width="0.7" class="ripple" style="animation-delay:1.65s"/>
<line x1="1012.8" y1="450.2" x2="1027.2" y2="450.2" stroke="white" stroke-width="0.7" class="ripple" style="animation-delay:2.25s"/>
<line x1="1036.8" y1="450.2" x2="1051.2" y2="450.2" stroke="white" stroke-width="0.7" class="ripple" style="animation-delay:0.15s"/>
<line x1="1060.8" y1="450.2" x2="1075.2" y2="450.2" stroke="white" stroke-width="0.7" class="ripple" style="animation-delay:0.60s"/>
<line x1="1084.8" y1="450.2" x2="1099.2" y2="450.2" stroke="white" stroke-width="0.7" class="ripple" style="animation-delay:1.05s"/>
<line x1="1108.8" y1="450.2" x2="1123.2" y2="450.2" stroke="white" stroke-width="0.7" class="ripple" style="animation-delay:1.50s"/>
<line x1="1132.8" y1="450.2" x2="1147.2" y2="450.2" stroke="white" stroke-width="0.7" class="ripple" style="animation-delay:1.95s"/>
<line x1="772.8" y1="469.4" x2="787.2" y2="469.4" stroke="white" stroke-width="0.7" class="ripple" style="animation-delay:1.35s"/>
<line x1="796.8" y1="469.4" x2="811.2" y2="469.4" stroke="white" stroke-width="0.7" class="ripple" style="animation-delay:1.80s"/>
<line x1="820.8" y1="469.4" x2="835.2" y2="469.4" stroke="white" stroke-width="0.7" class="ripple" style="animation-delay:2.25s"/>
<line x1="844.8" y1="469.4" x2="859.2" y2="469.4" stroke="white" stroke-width="0.7" class="ripple" style="animation-delay:0.15s"/>
<line x1="1108.8" y1="469.4" x2="1123.2" y2="469.4" stroke="white" stroke-width="0.7" class="ripple" style="animation-delay:0.00s"/>
</g>

<!-- ── Tree canopies ── -->
<g id="trees">
<circle cx="12.0" cy="257.3" r="10.1" fill="#2d8b2d" opacity="0.9"/>
<circle cx="8.4" cy="255.0" r="3.5" fill="#55c455" opacity="0.7"/>
<circle cx="12.0" cy="276.5" r="10.1" fill="#2d8b2d" opacity="0.9"/>
<circle cx="8.4" cy="274.2" r="3.5" fill="#55c455" opacity="0.7"/>
<circle cx="12.0" cy="295.7" r="10.1" fill="#2d8b2d" opacity="0.9"/>
<circle cx="8.4" cy="293.4" r="3.5" fill="#55c455" opacity="0.7"/>
<circle cx="12.0" cy="314.9" r="10.1" fill="#2d8b2d" opacity="0.9"/>
<circle cx="8.4" cy="312.6" r="3.5" fill="#55c455" opacity="0.7"/>
<circle cx="36.0" cy="314.9" r="10.1" fill="#2d8b2d" opacity="0.9"/>
<circle cx="32.4" cy="312.6" r="3.5" fill="#55c455" opacity="0.7"/>
<circle cx="60.0" cy="314.9" r="10.1" fill="#2d8b2d" opacity="0.9"/>
<circle cx="56.4" cy="312.6" r="3.5" fill="#55c455" opacity="0.7"/>
<circle cx="84.0" cy="314.9" r="10.1" fill="#2d8b2d" opacity="0.9"/>
<circle cx="80.4" cy="312.6" r="3.5" fill="#55c455" opacity="0.7"/>
<circle cx="12.0" cy="334.1" r="10.1" fill="#2d8b2d" opacity="0.9"/>
<circle cx="8.4" cy="331.8" r="3.5" fill="#55c455" opacity="0.7"/>
<circle cx="36.0" cy="334.1" r="10.1" fill="#2d8b2d" opacity="0.9"/>
<circle cx="32.4" cy="331.8" r="3.5" fill="#55c455" opacity="0.7"/>
<circle cx="60.0" cy="334.1" r="10.1" fill="#2d8b2d" opacity="0.9"/>
<circle cx="56.4" cy="331.8" r="3.5" fill="#55c455" opacity="0.7"/>
<circle cx="84.0" cy="334.1" r="10.1" fill="#2d8b2d" opacity="0.9"/>
<circle cx="80.4" cy="331.8" r="3.5" fill="#55c455" opacity="0.7"/>
<circle cx="12.0" cy="353.3" r="10.1" fill="#2d8b2d" opacity="0.9"/>
<circle cx="8.4" cy="351.0" r="3.5" fill="#55c455" opacity="0.7"/>
<circle cx="36.0" cy="353.3" r="10.1" fill="#2d8b2d" opacity="0.9"/>
<circle cx="32.4" cy="351.0" r="3.5" fill="#55c455" opacity="0.7"/>
<circle cx="60.0" cy="353.3" r="10.1" fill="#2d8b2d" opacity="0.9"/>
<circle cx="56.4" cy="351.0" r="3.5" fill="#55c455" opacity="0.7"/>
<circle cx="84.0" cy="353.3" r="10.1" fill="#2d8b2d" opacity="0.9"/>
<circle cx="80.4" cy="351.0" r="3.5" fill="#55c455" opacity="0.7"/>
<circle cx="108.0" cy="353.3" r="10.1" fill="#2d8b2d" opacity="0.9"/>
<circle cx="104.4" cy="351.0" r="3.5" fill="#55c455" opacity="0.7"/>
<circle cx="12.0" cy="372.5" r="10.1" fill="#2d8b2d" opacity="0.9"/>
<circle cx="8.4" cy="370.2" r="3.5" fill="#55c455" opacity="0.7"/>
<circle cx="36.0" cy="372.5" r="10.1" fill="#2d8b2d" opacity="0.9"/>
<circle cx="32.4" cy="370.2" r="3.5" fill="#55c455" opacity="0.7"/>
<circle cx="108.0" cy="372.5" r="10.1" fill="#2d8b2d" opacity="0.9"/>
<circle cx="104.4" cy="370.2" r="3.5" fill="#55c455" opacity="0.7"/>
<circle cx="108.0" cy="391.7" r="10.1" fill="#2d8b2d" opacity="0.9"/>
<circle cx="104.4" cy="389.4" r="3.5" fill="#55c455" opacity="0.7"/>
</g>

<!-- ── Pokemon NPCs ── -->
<g id="npcs">

  <!-- ── Mega Diancie ── -->
  <filter id="glow0" x="-60%" y="-60%" width="220%" height="220%">
    <feGaussianBlur stdDeviation="4" result="b"/>
    <feMerge><feMergeNode in="b"/><feMergeNode in="SourceGraphic"/></feMerge>
  </filter>

  <g style="animation:move0 21.9s ease-in-out 3.29s infinite alternate;transform:translate(396.0px,259.2px)">
    <!-- ground shadow -->
    <ellipse cx="0" cy="19.0" rx="8" ry="3" fill="rgba(0,0,0,0.3)" style="animation:shadow0 2.6s ease-in-out infinite alternate"/>

    <!-- main body with bob animation -->
    <g style="animation:bob0 1.8s ease-in-out 3.29s infinite">
      <!-- glow/bloom -->
      <polygon points="0,-22.4 15.679999999999998,0 0,22.4 -15.679999999999998,0" fill="#FF85C8" opacity="0.35" filter="url(#glow0)"/>
      <!-- body -->
      <polygon points="0,-22.4 15.679999999999998,0 0,22.4 -15.679999999999998,0" fill="#FF85C8" stroke="#FFE0F0" stroke-width="1.5"/>
      <!-- inner shine -->
      <polygon points="0,-10.08 7.055999999999999,0 0,10.08 -7.055999999999999,0" fill="#FFE0F0" opacity="0.45"/>
      <!-- eye dot -->
      <circle cx="0" cy="-4.5" r="2" fill="rgba(255,255,255,0.8)"/>
      <!-- sprite overlay (browser only) -->
      
    <defs><clipPath id="spriteclip0"><rect x="-22.4" y="-20.2" width="32.0" height="32.0"/></clipPath></defs>
    <image href="./assets/sprites/0719/0001/Walk-Anim.png" x="-22.4" y="-20.2"
      width="256" height="256"
      clip-path="url(#spriteclip0)"
      style="animation:sf0 0.8s steps(8,end) 3.29s infinite;transform-origin:-22.4px -20.2px"/>
    </g>

    <!-- name tag -->
    <text y="35.4" text-anchor="middle"
      font-family="'Courier New',Courier,monospace" font-size="7"
      fill="white" stroke="black" stroke-width="2" paint-order="stroke">Mega Diancie</text>
  </g>

  <!-- ── Shiny Ceruledge ── -->
  <filter id="glow1" x="-60%" y="-60%" width="220%" height="220%">
    <feGaussianBlur stdDeviation="4" result="b"/>
    <feMerge><feMergeNode in="b"/><feMergeNode in="SourceGraphic"/></feMerge>
  </filter>

  <g style="animation:move1 18.6s ease-in-out 2.12s infinite alternate;transform:translate(828.0px,105.6px)">
    <!-- ground shadow -->
    <ellipse cx="0" cy="19.0" rx="8" ry="3" fill="rgba(0,0,0,0.3)" style="animation:shadow1 2.2s ease-in-out infinite alternate"/>

    <!-- main body with bob animation -->
    <g style="animation:bob1 2.1s ease-in-out 2.12s infinite">
      <!-- glow/bloom -->
      <polygon points="0,-22.4 15.679999999999998,0 0,22.4 -15.679999999999998,0" fill="#3A7BFF" opacity="0.35" filter="url(#glow1)"/>
      <!-- body -->
      <polygon points="0,-22.4 15.679999999999998,0 0,22.4 -15.679999999999998,0" fill="#3A7BFF" stroke="#A0C8FF" stroke-width="1.5"/>
      <!-- inner shine -->
      <polygon points="0,-10.08 7.055999999999999,0 0,10.08 -7.055999999999999,0" fill="#A0C8FF" opacity="0.45"/>
      <!-- eye dot -->
      <circle cx="0" cy="-4.5" r="2" fill="rgba(255,255,255,0.8)"/>
      <!-- sprite overlay (browser only) -->
      
    <defs><clipPath id="spriteclip1"><rect x="-22.4" y="-20.2" width="32.0" height="32.0"/></clipPath></defs>
    <image href="./assets/sprites/0937/0000/0001/Walk-Anim.png" x="-22.4" y="-20.2"
      width="256" height="256"
      clip-path="url(#spriteclip1)"
      style="animation:sf1 0.8s steps(8,end) 2.12s infinite;transform-origin:-22.4px -20.2px"/>
    </g>

    <!-- name tag -->
    <text y="35.4" text-anchor="middle"
      font-family="'Courier New',Courier,monospace" font-size="7"
      fill="white" stroke="black" stroke-width="2" paint-order="stroke">Shiny Ceruledge</text>
  </g>

  <!-- ── Shiny Iron Valiant ── -->
  <filter id="glow2" x="-60%" y="-60%" width="220%" height="220%">
    <feGaussianBlur stdDeviation="4" result="b"/>
    <feMerge><feMergeNode in="b"/><feMergeNode in="SourceGraphic"/></feMerge>
  </filter>

  <g style="animation:move2 21.3s ease-in-out 6.30s infinite alternate;transform:translate(1044.0px,220.8px)">
    <!-- ground shadow -->
    <ellipse cx="0" cy="19.0" rx="8" ry="3" fill="rgba(0,0,0,0.3)" style="animation:shadow2 2.6s ease-in-out infinite alternate"/>

    <!-- main body with bob animation -->
    <g style="animation:bob2 2.4s ease-in-out 6.30s infinite">
      <!-- glow/bloom -->
      <polygon points="0,-22.4 15.679999999999998,0 0,22.4 -15.679999999999998,0" fill="#00FFB2" opacity="0.35" filter="url(#glow2)"/>
      <!-- body -->
      <polygon points="0,-22.4 15.679999999999998,0 0,22.4 -15.679999999999998,0" fill="#00FFB2" stroke="#B2FFE8" stroke-width="1.5"/>
      <!-- inner shine -->
      <polygon points="0,-10.08 7.055999999999999,0 0,10.08 -7.055999999999999,0" fill="#B2FFE8" opacity="0.45"/>
      <!-- eye dot -->
      <circle cx="0" cy="-4.5" r="2" fill="rgba(255,255,255,0.8)"/>
      <!-- sprite overlay (browser only) -->
      
    <defs><clipPath id="spriteclip2"><rect x="-22.4" y="-20.2" width="32.0" height="32.0"/></clipPath></defs>
    <image href="./assets/sprites/1006/0000/0001/Walk-Anim.png" x="-22.4" y="-20.2"
      width="256" height="256"
      clip-path="url(#spriteclip2)"
      style="animation:sf2 0.8s steps(8,end) 6.30s infinite;transform-origin:-22.4px -20.2px"/>
    </g>

    <!-- name tag -->
    <text y="35.4" text-anchor="middle"
      font-family="'Courier New',Courier,monospace" font-size="7"
      fill="white" stroke="black" stroke-width="2" paint-order="stroke">Shiny Iron Valiant</text>
  </g>

  <!-- ── Shiny Greninja ── -->
  <filter id="glow3" x="-60%" y="-60%" width="220%" height="220%">
    <feGaussianBlur stdDeviation="4" result="b"/>
    <feMerge><feMergeNode in="b"/><feMergeNode in="SourceGraphic"/></feMerge>
  </filter>

  <g style="animation:move3 22.6s ease-in-out 7.55s infinite alternate;transform:translate(780.0px,508.8px)">
    <!-- ground shadow -->
    <ellipse cx="0" cy="14.3" rx="8" ry="3" fill="rgba(0,0,0,0.3)" style="animation:shadow3 2.7s ease-in-out infinite alternate"/>

    <!-- main body with bob animation -->
    <g style="animation:bob3 2.7s ease-in-out 7.55s infinite">
      <!-- glow/bloom -->
      <polygon points="0,-16.799999999999997 11.759999999999998,0 0,16.799999999999997 -11.759999999999998,0" fill="#FF6600" opacity="0.35" filter="url(#glow3)"/>
      <!-- body -->
      <polygon points="0,-16.799999999999997 11.759999999999998,0 0,16.799999999999997 -11.759999999999998,0" fill="#FF6600" stroke="#FFD0A0" stroke-width="1.5"/>
      <!-- inner shine -->
      <polygon points="0,-7.559999999999999 5.291999999999999,0 0,7.559999999999999 -5.291999999999999,0" fill="#FFD0A0" opacity="0.45"/>
      <!-- eye dot -->
      <circle cx="0" cy="-3.4" r="2" fill="rgba(255,255,255,0.8)"/>
      <!-- sprite overlay (browser only) -->
      
    <defs><clipPath id="spriteclip3"><rect x="-16.8" y="-15.1" width="24.0" height="24.0"/></clipPath></defs>
    <image href="./assets/sprites/0658/0000/0001/Walk-Anim.png" x="-16.8" y="-15.1"
      width="192" height="192"
      clip-path="url(#spriteclip3)"
      style="animation:sf3 0.8s steps(8,end) 7.55s infinite;transform-origin:-16.8px -15.1px"/>
    </g>

    <!-- name tag -->
    <text y="29.8" text-anchor="middle"
      font-family="'Courier New',Courier,monospace" font-size="7"
      fill="white" stroke="black" stroke-width="2" paint-order="stroke">Shiny Greninja</text>
  </g>

  <!-- ── Shiny Armarouge ── -->
  <filter id="glow4" x="-60%" y="-60%" width="220%" height="220%">
    <feGaussianBlur stdDeviation="4" result="b"/>
    <feMerge><feMergeNode in="b"/><feMergeNode in="SourceGraphic"/></feMerge>
  </filter>

  <g style="animation:move4 16.8s ease-in-out 9.39s infinite alternate;transform:translate(852.0px,182.4px)">
    <!-- ground shadow -->
    <ellipse cx="0" cy="19.0" rx="8" ry="3" fill="rgba(0,0,0,0.3)" style="animation:shadow4 2.0s ease-in-out infinite alternate"/>

    <!-- main body with bob animation -->
    <g style="animation:bob4 3.0s ease-in-out 9.39s infinite">
      <!-- glow/bloom -->
      <polygon points="0,-22.4 15.679999999999998,0 0,22.4 -15.679999999999998,0" fill="#FFD700" opacity="0.35" filter="url(#glow4)"/>
      <!-- body -->
      <polygon points="0,-22.4 15.679999999999998,0 0,22.4 -15.679999999999998,0" fill="#FFD700" stroke="#FFF0A0" stroke-width="1.5"/>
      <!-- inner shine -->
      <polygon points="0,-10.08 7.055999999999999,0 0,10.08 -7.055999999999999,0" fill="#FFF0A0" opacity="0.45"/>
      <!-- eye dot -->
      <circle cx="0" cy="-4.5" r="2" fill="rgba(255,255,255,0.8)"/>
      <!-- sprite overlay (browser only) -->
      
    <defs><clipPath id="spriteclip4"><rect x="-22.4" y="-20.2" width="32.0" height="32.0"/></clipPath></defs>
    <image href="./assets/sprites/0936/0000/0001/Walk-Anim.png" x="-22.4" y="-20.2"
      width="256" height="256"
      clip-path="url(#spriteclip4)"
      style="animation:sf4 0.8s steps(8,end) 9.39s infinite;transform-origin:-22.4px -20.2px"/>
    </g>

    <!-- name tag -->
    <text y="35.4" text-anchor="middle"
      font-family="'Courier New',Courier,monospace" font-size="7"
      fill="white" stroke="black" stroke-width="2" paint-order="stroke">Shiny Armarouge</text>
  </g>

  <!-- ── Shiny Yveltal ── -->
  <filter id="glow5" x="-60%" y="-60%" width="220%" height="220%">
    <feGaussianBlur stdDeviation="4" result="b"/>
    <feMerge><feMergeNode in="b"/><feMergeNode in="SourceGraphic"/></feMerge>
  </filter>

  <g style="animation:move5 16.5s ease-in-out 6.27s infinite alternate;transform:translate(828.0px,201.6px)">
    <!-- ground shadow -->
    <ellipse cx="0" cy="23.8" rx="8" ry="3" fill="rgba(0,0,0,0.3)" style="animation:shadow5 2.0s ease-in-out infinite alternate"/>

    <!-- main body with bob animation -->
    <g style="animation:bob5 3.3s ease-in-out 6.27s infinite">
      <!-- glow/bloom -->
      <polygon points="0,-28 19.599999999999998,0 0,28 -19.599999999999998,0" fill="#CC44FF" opacity="0.35" filter="url(#glow5)"/>
      <!-- body -->
      <polygon points="0,-28 19.599999999999998,0 0,28 -19.599999999999998,0" fill="#CC44FF" stroke="#EEB0FF" stroke-width="1.5"/>
      <!-- inner shine -->
      <polygon points="0,-12.6 8.819999999999999,0 0,12.6 -8.819999999999999,0" fill="#EEB0FF" opacity="0.45"/>
      <!-- eye dot -->
      <circle cx="0" cy="-5.6" r="2" fill="rgba(255,255,255,0.8)"/>
      <!-- sprite overlay (browser only) -->
      
    <defs><clipPath id="spriteclip5"><rect x="-28.0" y="-25.2" width="40.0" height="40.0"/></clipPath></defs>
    <image href="./assets/sprites/0717/0000/0001/Walk-Anim.png" x="-28.0" y="-25.2"
      width="320" height="320"
      clip-path="url(#spriteclip5)"
      style="animation:sf5 0.8s steps(8,end) 6.27s infinite;transform-origin:-28.0px -25.2px"/>
    </g>

    <!-- name tag -->
    <text y="41.0" text-anchor="middle"
      font-family="'Courier New',Courier,monospace" font-size="7"
      fill="white" stroke="black" stroke-width="2" paint-order="stroke">Shiny Yveltal</text>
  </g>
</g>

<!-- ── Vignette ── -->
<rect width="960" height="480" fill="url(#vignette)"/>

<!-- ── HUD ── -->

<rect x="0" y="0" width="960" height="28" fill="url(#titlebar)" opacity="0.92"/>
<text x="480" y="18" text-anchor="middle"
  font-family="'Courier New',Courier,monospace" font-size="11" font-weight="bold"
  fill="#88ddff" letter-spacing="2">◆ POKEMON MYSTERY DUNGEON WORLD ◆</text>
<line x1="0" y1="28" x2="960" y2="28" stroke="#1a3060" stroke-width="1"/>

<rect x="0" y="454" width="960" height="26" fill="rgba(0,0,0,0.6)"/>
<circle cx="12.0" cy="464" r="4" fill="#FF85C8"/><text x="20.0" y="468" font-family="'Courier New',monospace" font-size="7" fill="#aaa">Mega Diancie</text><circle cx="172.0" cy="464" r="4" fill="#3A7BFF"/><text x="180.0" y="468" font-family="'Courier New',monospace" font-size="7" fill="#aaa">Shiny Ceruledge</text><circle cx="332.0" cy="464" r="4" fill="#00FFB2"/><text x="340.0" y="468" font-family="'Courier New',monospace" font-size="7" fill="#aaa">Shiny Iron Valiant</text><circle cx="492.0" cy="464" r="4" fill="#FF6600"/><text x="500.0" y="468" font-family="'Courier New',monospace" font-size="7" fill="#aaa">Shiny Greninja</text><circle cx="652.0" cy="464" r="4" fill="#FFD700"/><text x="660.0" y="468" font-family="'Courier New',monospace" font-size="7" fill="#aaa">Shiny Armarouge</text><circle cx="812.0" cy="464" r="4" fill="#CC44FF"/><text x="820.0" y="468" font-family="'Courier New',monospace" font-size="7" fill="#aaa">Shiny Yveltal</text>

</svg>
